<?xml version="1.0" encoding="utf-8"?>
<!-- Generated by Mocodo 4.2.1 -->
<svg width="655" height="532" viewBox="0 0 655 532" xmlns="http://www.w3.org/2000/svg">
<rect x="0" y="0" width="655" height="532" fill="#f7f7f7" stroke="none" stroke-width="0"/>

<!-- Association ASSOCIER -->
<g>
	<line x1="175" y1="229" x2="175" y2="77" stroke="#de77ae" stroke-width="2"/>
	<line x1="293" y1="77" x2="175" y2="77" stroke="#de77ae" stroke-width="2"/>
	<g>
		<path d="M200 52 a14 14 90 0 1 14 14 V77 h-78 V66 a14 14 90 0 1 14 -14" fill="#f1b6da" stroke="#f1b6da" stroke-width="0"/>
		<path d="M214 77 v11 a14 14 90 0 1 -14 14 H150 a14 14 90 0 1 -14 -14 V77 H78" fill="#fde0ef" stroke="#fde0ef" stroke-width="0"/>
		<rect x="136" y="52" width="78" height="50" fill="none" rx="14" stroke="#de77ae" stroke-width="2"/>
		<line x1="136" y1="77" x2="214" y2="77" stroke="#de77ae" stroke-width="1"/>
		<text x="143" y="69.75" fill="#000000" font-family="Verdana" font-size="12">ASSOCIER</text>
	</g>
	<text x="180" y="162" fill="#4d9221" font-family="Verdana" font-size="12">O,N</text>
	<text x="225" y="94" fill="#4d9221" font-family="Verdana" font-size="12">1,1</text>
</g>

<!-- Association COMPOSER -->
<g>
	<line x1="293" y1="77" x2="411" y2="77" stroke="#de77ae" stroke-width="2"/>
	<line x1="411" y1="229" x2="411" y2="77" stroke="#de77ae" stroke-width="2"/>
	<g>
		<path d="M439 52 a14 14 90 0 1 14 14 V77 h-84 V66 a14 14 90 0 1 14 -14" fill="#f1b6da" stroke="#f1b6da" stroke-width="0"/>
		<path d="M453 77 v11 a14 14 90 0 1 -14 14 H383 a14 14 90 0 1 -14 -14 V77 H84" fill="#fde0ef" stroke="#fde0ef" stroke-width="0"/>
		<rect x="369" y="52" width="84" height="50" fill="none" rx="14" stroke="#de77ae" stroke-width="2"/>
		<line x1="369" y1="77" x2="453" y2="77" stroke="#de77ae" stroke-width="1"/>
		<text x="376" y="69.75" fill="#000000" font-family="Verdana" font-size="12">COMPOSER</text>
		<text x="376" y="94.8" fill="#000000" font-family="Verdana" font-size="12">dateAjout</text>
	</g>
	<text x="340" y="94" fill="#4d9221" font-family="Verdana" font-size="12">O,N</text>
	<text x="416" y="179" fill="#4d9221" font-family="Verdana" font-size="12">0,N</text>
</g>

<!-- Association ECOUTER -->
<g>
	<line x1="175" y1="229" x2="293" y2="229" stroke="#de77ae" stroke-width="2"/>
	<line x1="411" y1="229" x2="293" y2="229" stroke="#de77ae" stroke-width="2"/>
	<g>
		<path d="M316 204 a14 14 90 0 1 14 14 V229 h-74 V218 a14 14 90 0 1 14 -14" fill="#f1b6da" stroke="#f1b6da" stroke-width="0"/>
		<path d="M330 229 v11 a14 14 90 0 1 -14 14 H270 a14 14 90 0 1 -14 -14 V229 H74" fill="#fde0ef" stroke="#fde0ef" stroke-width="0"/>
		<rect x="256" y="204" width="74" height="50" fill="none" rx="14" stroke="#de77ae" stroke-width="2"/>
		<line x1="256" y1="229" x2="330" y2="229" stroke="#de77ae" stroke-width="1"/>
		<text x="264" y="221.75" fill="#000000" font-family="Verdana" font-size="12">ECOUTER</text>
		<text x="263" y="246.8" fill="#000000" font-family="Verdana" font-size="12">date</text>
	</g>
	<text x="227" y="246" fill="#4d9221" font-family="Verdana" font-size="12">O,N</text>
	<text x="347" y="246" fill="#4d9221" font-family="Verdana" font-size="12">O,N</text>
</g>

<!-- Association CONTIENT -->
<g>
	<line x1="411" y1="229" x2="519" y2="229" stroke="#de77ae" stroke-width="2"/>
	<line x1="619" y1="229" x2="519" y2="229" stroke="#de77ae" stroke-width="2"/>
	<g>
		<path d="M544 204 a14 14 90 0 1 14 14 V229 h-78 V218 a14 14 90 0 1 14 -14" fill="#f1b6da" stroke="#f1b6da" stroke-width="0"/>
		<path d="M558 229 v11 a14 14 90 0 1 -14 14 H494 a14 14 90 0 1 -14 -14 V229 H78" fill="#fde0ef" stroke="#fde0ef" stroke-width="0"/>
		<rect x="480" y="204" width="78" height="50" fill="none" rx="14" stroke="#de77ae" stroke-width="2"/>
		<line x1="480" y1="229" x2="558" y2="229" stroke="#de77ae" stroke-width="1"/>
		<text x="487" y="221.75" fill="#000000" font-family="Verdana" font-size="12">CONTIENT</text>
	</g>
	<text x="451" y="246" fill="#4d9221" font-family="Verdana" font-size="12">1,N</text>
	<text x="565" y="246" fill="#4d9221" font-family="Verdana" font-size="12">0,N</text>
</g>

<!-- Association ABONNEMENT -->
<g>
	<line x1="175" y1="229" x2="60" y2="372" stroke="#de77ae" stroke-width="2"/>
	<line x1="175" y1="481" x2="60" y2="372" stroke="#de77ae" stroke-width="2"/>
	<g>
		<path d="M97 347 a14 14 90 0 1 14 14 V372 h-102 V361 a14 14 90 0 1 14 -14" fill="#f1b6da" stroke="#f1b6da" stroke-width="0"/>
		<path d="M111 372 v11 a14 14 90 0 1 -14 14 H23 a14 14 90 0 1 -14 -14 V372 H102" fill="#fde0ef" stroke="#fde0ef" stroke-width="0"/>
		<rect x="9" y="347" width="102" height="50" fill="none" rx="14" stroke="#de77ae" stroke-width="2"/>
		<line x1="9" y1="372" x2="111" y2="372" stroke="#de77ae" stroke-width="1"/>
		<text x="17" y="364.75" fill="#000000" font-family="Verdana" font-size="12">ABONNEMENT</text>
	</g>
	<text x="101" y="285.44" fill="#4d9221" font-family="Verdana" font-size="12">0,N</text>
	<text x="111" y="456.13" fill="#4d9221" font-family="Verdana" font-size="12">0,N</text>
</g>

<!-- Association NOTER -->
<g>
	<line x1="175" y1="229" x2="175" y2="372" stroke="#de77ae" stroke-width="2"/>
	<line x1="293" y1="372" x2="175" y2="372" stroke="#de77ae" stroke-width="2"/>
	<g>
		<path d="M191 330 a14 14 90 0 1 14 14 V355 h-60 V344 a14 14 90 0 1 14 -14" fill="#f1b6da" stroke="#f1b6da" stroke-width="0"/>
		<path d="M205 355 v45 a14 14 90 0 1 -14 14 H159 a14 14 90 0 1 -14 -14 V355 H60" fill="#fde0ef" stroke="#fde0ef" stroke-width="0"/>
		<rect x="145" y="330" width="60" height="84" fill="none" rx="14" stroke="#de77ae" stroke-width="2"/>
		<line x1="145" y1="355" x2="205" y2="355" stroke="#de77ae" stroke-width="1"/>
		<text x="154" y="347.75" fill="#000000" font-family="Verdana" font-size="12">NOTER</text>
		<text x="152" y="372.8" fill="#000000" font-family="Verdana" font-size="12">note</text>
		<text x="152" y="389.8" fill="#000000" font-family="Verdana" font-size="12">critique</text>
		<text x="152" y="406.8" fill="#000000" font-family="Verdana" font-size="12">date</text>
	</g>
	<text x="180" y="305" fill="#4d9221" font-family="Verdana" font-size="12">0,N</text>
	<text x="223" y="389" fill="#4d9221" font-family="Verdana" font-size="12">0,N</text>
</g>

<!-- Association POSSEDER -->
<g>
	<line x1="293" y1="372" x2="411" y2="372" stroke="#de77ae" stroke-width="2"/>
	<line x1="411" y1="229" x2="411" y2="372" stroke="#de77ae" stroke-width="2"/>
	<g>
		<path d="M438 347 a14 14 90 0 1 14 14 V372 h-82 V361 a14 14 90 0 1 14 -14" fill="#f1b6da" stroke="#f1b6da" stroke-width="0"/>
		<path d="M452 372 v11 a14 14 90 0 1 -14 14 H384 a14 14 90 0 1 -14 -14 V372 H82" fill="#fde0ef" stroke="#fde0ef" stroke-width="0"/>
		<rect x="370" y="347" width="82" height="50" fill="none" rx="14" stroke="#de77ae" stroke-width="2"/>
		<line x1="370" y1="372" x2="452" y2="372" stroke="#de77ae" stroke-width="1"/>
		<text x="378" y="364.75" fill="#000000" font-family="Verdana" font-size="12">POSSEDER</text>
	</g>
	<text x="341" y="389" fill="#4d9221" font-family="Verdana" font-size="12">0,N</text>
	<text x="416" y="288" fill="#4d9221" font-family="Verdana" font-size="12">1,1</text>
</g>

<!-- Association PUBLIER -->
<g>
	<line x1="175" y1="481" x2="293" y2="481" stroke="#de77ae" stroke-width="2"/>
	<line x1="293" y1="372" x2="293" y2="481" stroke="#de77ae" stroke-width="2"/>
	<g>
		<path d="M313 456 a14 14 90 0 1 14 14 V481 h-68 V470 a14 14 90 0 1 14 -14" fill="#f1b6da" stroke="#f1b6da" stroke-width="0"/>
		<path d="M327 481 v11 a14 14 90 0 1 -14 14 H273 a14 14 90 0 1 -14 -14 V481 H68" fill="#fde0ef" stroke="#fde0ef" stroke-width="0"/>
		<rect x="259" y="456" width="68" height="50" fill="none" rx="14" stroke="#de77ae" stroke-width="2"/>
		<line x1="259" y1="481" x2="327" y2="481" stroke="#de77ae" stroke-width="1"/>
		<text x="267" y="473.75" fill="#000000" font-family="Verdana" font-size="12">PUBLIER</text>
	</g>
	<text x="217" y="498" fill="#4d9221" font-family="Verdana" font-size="12">0,N</text>
	<text x="298" y="448" fill="#4d9221" font-family="Verdana" font-size="12">1,1</text>
</g>

<!-- Entity PLAYLIST -->
<g>
	<g>
		<rect x="251" y="9" width="84" height="25" fill="#b8e186" stroke="none" stroke-width="0" opacity="1"/>
		<rect x="251" y="34" width="84" height="111" fill="#e6f5d0" stroke="none" stroke-width="0" opacity="1"/>
		<rect x="251" y="9" width="84" height="136" fill="none" stroke="#7fbc41" stroke-width="2" opacity="1"/>
		<line x1="251" y1="34" x2="335" y2="34" stroke="#7fbc41" stroke-width="1"/>
	</g>
	<text x="264" y="26.75" fill="#000000" font-family="Verdana" font-size="12">PLAYLIST</text>
	<text x="256" y="51.8" fill="#000000" font-family="Verdana" font-size="12">idP</text>
	<line x1="256" y1="54" x2="275" y2="54" stroke="#000000" stroke-width="1"/>
	<text x="256" y="68.8" fill="#000000" font-family="Verdana" font-size="12">nomP</text>
	<text x="256" y="85.8" fill="#000000" font-family="Verdana" font-size="12">imgPlaylist</text>
	<text x="256" y="102.8" fill="#000000" font-family="Verdana" font-size="12">descriptionP</text>
	<text x="256" y="119.8" fill="#000000" font-family="Verdana" font-size="12">anneeP</text>
	<text x="256" y="136.8" fill="#000000" font-family="Verdana" font-size="12">dateMajP</text>
</g>

<!-- Entity UTILISATEUR -->
<g>
	<g>
		<rect x="128" y="170" width="94" height="25" fill="#b8e186" stroke="none" stroke-width="0" opacity="1"/>
		<rect x="128" y="195" width="94" height="93" fill="#e6f5d0" stroke="none" stroke-width="0" opacity="1"/>
		<rect x="128" y="170" width="94" height="118" fill="none" stroke="#7fbc41" stroke-width="2" opacity="1"/>
		<line x1="128" y1="195" x2="222" y2="195" stroke="#7fbc41" stroke-width="1"/>
	</g>
	<text x="134" y="187.75" fill="#000000" font-family="Verdana" font-size="12">UTILISATEUR</text>
	<text x="133" y="212.8" fill="#000000" font-family="Verdana" font-size="12">idU</text>
	<line x1="133" y1="215" x2="154" y2="215" stroke="#000000" stroke-width="1"/>
	<text x="133" y="229.8" fill="#000000" font-family="Verdana" font-size="12">pseudoU</text>
	<text x="133" y="246.8" fill="#000000" font-family="Verdana" font-size="12">mdpU</text>
	<text x="133" y="263.8" fill="#000000" font-family="Verdana" font-size="12">roleU</text>
	<text x="133" y="280.8" fill="#000000" font-family="Verdana" font-size="12">mailU</text>
</g>

<!-- Entity MUSIQUE -->
<g>
	<g>
		<rect x="376" y="187" width="70" height="25" fill="#b8e186" stroke="none" stroke-width="0" opacity="1"/>
		<rect x="376" y="212" width="70" height="59" fill="#e6f5d0" stroke="none" stroke-width="0" opacity="1"/>
		<rect x="376" y="187" width="70" height="84" fill="none" stroke="#7fbc41" stroke-width="2" opacity="1"/>
		<line x1="376" y1="212" x2="446" y2="212" stroke="#7fbc41" stroke-width="1"/>
	</g>
	<text x="382" y="204.75" fill="#000000" font-family="Verdana" font-size="12">MUSIQUE</text>
	<text x="381" y="229.8" fill="#000000" font-family="Verdana" font-size="12">idM</text>
	<line x1="381" y1="232" x2="403" y2="232" stroke="#000000" stroke-width="1"/>
	<text x="381" y="246.8" fill="#000000" font-family="Verdana" font-size="12">nomM</text>
	<text x="381" y="263.8" fill="#000000" font-family="Verdana" font-size="12">lienM</text>
</g>

<!-- Entity GENRE -->
<g>
	<g>
		<rect x="592" y="195" width="54" height="25" fill="#b8e186" stroke="none" stroke-width="0" opacity="1"/>
		<rect x="592" y="220" width="54" height="43" fill="#e6f5d0" stroke="none" stroke-width="0" opacity="1"/>
		<rect x="592" y="195" width="54" height="68" fill="none" stroke="#7fbc41" stroke-width="2" opacity="1"/>
		<line x1="592" y1="220" x2="646" y2="220" stroke="#7fbc41" stroke-width="1"/>
	</g>
	<text x="598" y="212.75" fill="#000000" font-family="Verdana" font-size="12">GENRE</text>
	<text x="597" y="237.8" fill="#000000" font-family="Verdana" font-size="12">idG</text>
	<line x1="597" y1="240" x2="618" y2="240" stroke="#000000" stroke-width="1"/>
	<text x="597" y="254.8" fill="#000000" font-family="Verdana" font-size="12">nomG</text>
</g>

<!-- Entity ALBUM -->
<g>
	<g>
		<rect x="250" y="313" width="86" height="25" fill="#b8e186" stroke="none" stroke-width="0" opacity="1"/>
		<rect x="250" y="338" width="86" height="93" fill="#e6f5d0" stroke="none" stroke-width="0" opacity="1"/>
		<rect x="250" y="313" width="86" height="118" fill="none" stroke="#7fbc41" stroke-width="2" opacity="1"/>
		<line x1="250" y1="338" x2="336" y2="338" stroke="#7fbc41" stroke-width="1"/>
	</g>
	<text x="272" y="330.75" fill="#000000" font-family="Verdana" font-size="12">ALBUM</text>
	<text x="255" y="355.8" fill="#000000" font-family="Verdana" font-size="12">idAlbum</text>
	<line x1="255" y1="358" x2="305" y2="358" stroke="#000000" stroke-width="1"/>
	<text x="255" y="372.8" fill="#000000" font-family="Verdana" font-size="12">anneeAlbum</text>
	<text x="255" y="389.8" fill="#000000" font-family="Verdana" font-size="12">titreAlbum</text>
	<text x="255" y="406.8" fill="#000000" font-family="Verdana" font-size="12">imgAlbum</text>
	<text x="255" y="423.8" fill="#000000" font-family="Verdana" font-size="12">descriptionA</text>
</g>

<!-- Entity ARTISTE -->
<g>
	<g>
		<rect x="138" y="439" width="74" height="25" fill="#b8e186" stroke="none" stroke-width="0" opacity="1"/>
		<rect x="138" y="464" width="74" height="59" fill="#e6f5d0" stroke="none" stroke-width="0" opacity="1"/>
		<rect x="138" y="439" width="74" height="84" fill="none" stroke="#7fbc41" stroke-width="2" opacity="1"/>
		<line x1="138" y1="464" x2="212" y2="464" stroke="#7fbc41" stroke-width="1"/>
	</g>
	<text x="149" y="456.75" fill="#000000" font-family="Verdana" font-size="12">ARTISTE</text>
	<text x="143" y="481.8" fill="#000000" font-family="Verdana" font-size="12">idA</text>
	<line x1="143" y1="484" x2="163" y2="484" stroke="#000000" stroke-width="1"/>
	<text x="143" y="498.8" fill="#000000" font-family="Verdana" font-size="12">nomA</text>
	<text x="143" y="515.8" fill="#000000" font-family="Verdana" font-size="12">imgArtiste</text>
</g>
</svg>