<?xml version="1.0" encoding="utf-8"?>
<!-- Generated by Mocodo 4.2.1 -->
<svg width="439" height="532" viewBox="0 0 439 532" xmlns="http://www.w3.org/2000/svg">
<rect x="0" y="0" width="439" height="532" fill="#ffffff" stroke="none" stroke-width="0"/>

<!-- Association CONTIENT -->
<g>
	<line x1="171" y1="135" x2="171" y2="43" stroke="#d6604d" stroke-width="2"/>
	<line x1="51" y1="43" x2="171" y2="43" stroke="#d6604d" stroke-width="2"/>
	<g>
		<path d="M196 18 a14 14 90 0 1 14 14 V43 h-78 V32 a14 14 90 0 1 14 -14" fill="#f4a582" stroke="#f4a582" stroke-width="0"/>
		<path d="M210 43 v11 a14 14 90 0 1 -14 14 H146 a14 14 90 0 1 -14 -14 V43 H78" fill="#fddbc7" stroke="#fddbc7" stroke-width="0"/>
		<rect x="132" y="18" width="78" height="50" fill="none" rx="14" stroke="#d6604d" stroke-width="2"/>
		<line x1="132" y1="43" x2="210" y2="43" stroke="#d6604d" stroke-width="1"/>
		<text x="139" y="35.75" fill="#000000" font-family="Verdana" font-size="12">CONTIENT</text>
	</g>
	<text x="176" y="85" fill="#4d4d4d" font-family="Verdana" font-size="12">1,N</text>
	<text x="83" y="60" fill="#4d4d4d" font-family="Verdana" font-size="12">0,N</text>
</g>

<!-- Association COMPOSER -->
<g>
	<line x1="51" y1="253" x2="51" y2="135" stroke="#d6604d" stroke-width="2"/>
	<line x1="171" y1="135" x2="51" y2="135" stroke="#d6604d" stroke-width="2"/>
	<g>
		<path d="M79 110 a14 14 90 0 1 14 14 V135 h-84 V124 a14 14 90 0 1 14 -14" fill="#f4a582" stroke="#f4a582" stroke-width="0"/>
		<path d="M93 135 v11 a14 14 90 0 1 -14 14 H23 a14 14 90 0 1 -14 -14 V135 H84" fill="#fddbc7" stroke="#fddbc7" stroke-width="0"/>
		<rect x="9" y="110" width="84" height="50" fill="none" rx="14" stroke="#d6604d" stroke-width="2"/>
		<line x1="9" y1="135" x2="93" y2="135" stroke="#d6604d" stroke-width="1"/>
		<text x="16" y="127.75" fill="#000000" font-family="Verdana" font-size="12">COMPOSER</text>
		<text x="16" y="152.8" fill="#000000" font-family="Verdana" font-size="12">dateAjout</text>
	</g>
	<text x="56" y="177" fill="#4d4d4d" font-family="Verdana" font-size="12">O,N</text>
	<text x="109" y="152" fill="#4d4d4d" font-family="Verdana" font-size="12">0,N</text>
</g>

<!-- Association POSSEDER -->
<g>
	<line x1="285" y1="253" x2="285" y2="135" stroke="#d6604d" stroke-width="2"/>
	<line x1="171" y1="135" x2="285" y2="135" stroke="#d6604d" stroke-width="2"/>
	<g>
		<path d="M312 110 a14 14 90 0 1 14 14 V135 h-82 V124 a14 14 90 0 1 14 -14" fill="#f4a582" stroke="#f4a582" stroke-width="0"/>
		<path d="M326 135 v11 a14 14 90 0 1 -14 14 H258 a14 14 90 0 1 -14 -14 V135 H82" fill="#fddbc7" stroke="#fddbc7" stroke-width="0"/>
		<rect x="244" y="110" width="82" height="50" fill="none" rx="14" stroke="#d6604d" stroke-width="2"/>
		<line x1="244" y1="135" x2="326" y2="135" stroke="#d6604d" stroke-width="1"/>
		<text x="252" y="127.75" fill="#000000" font-family="Verdana" font-size="12">POSSEDER</text>
	</g>
	<text x="290" y="177" fill="#4d4d4d" font-family="Verdana" font-size="12">0,N</text>
	<text x="211" y="152" fill="#4d4d4d" font-family="Verdana" font-size="12">1,1</text>
</g>

<!-- Association ECOUTER -->
<g>
	<line x1="171" y1="397" x2="171" y2="253" stroke="#d6604d" stroke-width="2"/>
	<line x1="171" y1="135" x2="171" y2="253" stroke="#d6604d" stroke-width="2"/>
	<g>
		<path d="M194 228 a14 14 90 0 1 14 14 V253 h-74 V242 a14 14 90 0 1 14 -14" fill="#f4a582" stroke="#f4a582" stroke-width="0"/>
		<path d="M208 253 v11 a14 14 90 0 1 -14 14 H148 a14 14 90 0 1 -14 -14 V253 H74" fill="#fddbc7" stroke="#fddbc7" stroke-width="0"/>
		<rect x="134" y="228" width="74" height="50" fill="none" rx="14" stroke="#d6604d" stroke-width="2"/>
		<line x1="134" y1="253" x2="208" y2="253" stroke="#d6604d" stroke-width="1"/>
		<text x="142" y="245.75" fill="#000000" font-family="Verdana" font-size="12">ECOUTER</text>
		<text x="141" y="270.8" fill="#000000" font-family="Verdana" font-size="12">date</text>
	</g>
	<text x="176" y="338" fill="#4d4d4d" font-family="Verdana" font-size="12">O,N</text>
	<text x="176" y="194" fill="#4d4d4d" font-family="Verdana" font-size="12">O,N</text>
</g>

<!-- Association PUBLIER -->
<g>
	<line x1="396" y1="397" x2="396" y2="253" stroke="#d6604d" stroke-width="2"/>
	<line x1="285" y1="253" x2="396" y2="253" stroke="#d6604d" stroke-width="2"/>
	<g>
		<path d="M416 228 a14 14 90 0 1 14 14 V253 h-68 V242 a14 14 90 0 1 14 -14" fill="#f4a582" stroke="#f4a582" stroke-width="0"/>
		<path d="M430 253 v11 a14 14 90 0 1 -14 14 H376 a14 14 90 0 1 -14 -14 V253 H68" fill="#fddbc7" stroke="#fddbc7" stroke-width="0"/>
		<rect x="362" y="228" width="68" height="50" fill="none" rx="14" stroke="#d6604d" stroke-width="2"/>
		<line x1="362" y1="253" x2="430" y2="253" stroke="#d6604d" stroke-width="1"/>
		<text x="370" y="245.75" fill="#000000" font-family="Verdana" font-size="12">PUBLIER</text>
	</g>
	<text x="401" y="355" fill="#4d4d4d" font-family="Verdana" font-size="12">0,N</text>
	<text x="333" y="270" fill="#4d4d4d" font-family="Verdana" font-size="12">1,1</text>
</g>

<!-- Association ASSOCIER -->
<g>
	<line x1="171" y1="397" x2="51" y2="397" stroke="#d6604d" stroke-width="2"/>
	<line x1="51" y1="253" x2="51" y2="397" stroke="#d6604d" stroke-width="2"/>
	<g>
		<path d="M76 372 a14 14 90 0 1 14 14 V397 h-78 V386 a14 14 90 0 1 14 -14" fill="#f4a582" stroke="#f4a582" stroke-width="0"/>
		<path d="M90 397 v11 a14 14 90 0 1 -14 14 H26 a14 14 90 0 1 -14 -14 V397 H78" fill="#fddbc7" stroke="#fddbc7" stroke-width="0"/>
		<rect x="12" y="372" width="78" height="50" fill="none" rx="14" stroke="#d6604d" stroke-width="2"/>
		<line x1="12" y1="397" x2="90" y2="397" stroke="#d6604d" stroke-width="1"/>
		<text x="19" y="389.75" fill="#000000" font-family="Verdana" font-size="12">ASSOCIER</text>
	</g>
	<text x="95" y="414" fill="#4d4d4d" font-family="Verdana" font-size="12">O,N</text>
	<text x="56" y="338" fill="#4d4d4d" font-family="Verdana" font-size="12">1,1</text>
</g>

<!-- Association NOTER -->
<g>
	<line x1="171" y1="397" x2="285" y2="397" stroke="#d6604d" stroke-width="2"/>
	<line x1="285" y1="253" x2="285" y2="397" stroke="#d6604d" stroke-width="2"/>
	<g>
		<path d="M301 355 a14 14 90 0 1 14 14 V380 h-60 V369 a14 14 90 0 1 14 -14" fill="#f4a582" stroke="#f4a582" stroke-width="0"/>
		<path d="M315 380 v45 a14 14 90 0 1 -14 14 H269 a14 14 90 0 1 -14 -14 V380 H60" fill="#fddbc7" stroke="#fddbc7" stroke-width="0"/>
		<rect x="255" y="355" width="60" height="84" fill="none" rx="14" stroke="#d6604d" stroke-width="2"/>
		<line x1="255" y1="380" x2="315" y2="380" stroke="#d6604d" stroke-width="1"/>
		<text x="264" y="372.75" fill="#000000" font-family="Verdana" font-size="12">NOTER</text>
		<text x="262" y="397.8" fill="#000000" font-family="Verdana" font-size="12">note</text>
		<text x="262" y="414.8" fill="#000000" font-family="Verdana" font-size="12">critique</text>
		<text x="262" y="431.8" fill="#000000" font-family="Verdana" font-size="12">date</text>
	</g>
	<text x="223" y="414" fill="#4d4d4d" font-family="Verdana" font-size="12">0,N</text>
	<text x="290" y="338" fill="#4d4d4d" font-family="Verdana" font-size="12">0,N</text>
</g>

<!-- Association ABONNEMENT -->
<g>
	<line x1="171" y1="397" x2="171" y2="498" stroke="#d6604d" stroke-width="2"/>
	<line x1="396" y1="397" x2="171" y2="498" stroke="#d6604d" stroke-width="2"/>
	<g>
		<path d="M208 473 a14 14 90 0 1 14 14 V498 h-102 V487 a14 14 90 0 1 14 -14" fill="#f4a582" stroke="#f4a582" stroke-width="0"/>
		<path d="M222 498 v11 a14 14 90 0 1 -14 14 H134 a14 14 90 0 1 -14 -14 V498 H102" fill="#fddbc7" stroke="#fddbc7" stroke-width="0"/>
		<rect x="120" y="473" width="102" height="50" fill="none" rx="14" stroke="#d6604d" stroke-width="2"/>
		<line x1="120" y1="498" x2="222" y2="498" stroke="#d6604d" stroke-width="1"/>
		<text x="128" y="490.75" fill="#000000" font-family="Verdana" font-size="12">ABONNEMENT</text>
	</g>
	<text x="176" y="465" fill="#4d4d4d" font-family="Verdana" font-size="12">0,N</text>
	<text x="337" y="406.88" fill="#4d4d4d" font-family="Verdana" font-size="12">0,N</text>
</g>

<!-- Entity GENRE -->
<g>
	<g>
		<rect x="24" y="9" width="54" height="25" fill="#bababa" stroke="none" stroke-width="0" opacity="1"/>
		<rect x="24" y="34" width="54" height="43" fill="#e0e0e0" stroke="none" stroke-width="0" opacity="1"/>
		<rect x="24" y="9" width="54" height="68" fill="none" stroke="#878787" stroke-width="2" opacity="1"/>
		<line x1="24" y1="34" x2="78" y2="34" stroke="#878787" stroke-width="1"/>
	</g>
	<text x="30" y="26.75" fill="#000000" font-family="Verdana" font-size="12">GENRE</text>
	<text x="29" y="51.8" fill="#000000" font-family="Verdana" font-size="12">idG</text>
	<line x1="29" y1="54" x2="50" y2="54" stroke="#000000" stroke-width="1"/>
	<text x="29" y="68.8" fill="#000000" font-family="Verdana" font-size="12">nomG</text>
</g>

<!-- Entity MUSIQUE -->
<g>
	<g>
		<rect x="136" y="93" width="70" height="25" fill="#bababa" stroke="none" stroke-width="0" opacity="1"/>
		<rect x="136" y="118" width="70" height="59" fill="#e0e0e0" stroke="none" stroke-width="0" opacity="1"/>
		<rect x="136" y="93" width="70" height="84" fill="none" stroke="#878787" stroke-width="2" opacity="1"/>
		<line x1="136" y1="118" x2="206" y2="118" stroke="#878787" stroke-width="1"/>
	</g>
	<text x="142" y="110.75" fill="#000000" font-family="Verdana" font-size="12">MUSIQUE</text>
	<text x="141" y="135.8" fill="#000000" font-family="Verdana" font-size="12">idM</text>
	<line x1="141" y1="138" x2="163" y2="138" stroke="#000000" stroke-width="1"/>
	<text x="141" y="152.8" fill="#000000" font-family="Verdana" font-size="12">nomM</text>
	<text x="141" y="169.8" fill="#000000" font-family="Verdana" font-size="12">lienM</text>
</g>

<!-- Entity PLAYLIST -->
<g>
	<g>
		<rect x="9" y="185" width="84" height="25" fill="#bababa" stroke="none" stroke-width="0" opacity="1"/>
		<rect x="9" y="210" width="84" height="111" fill="#e0e0e0" stroke="none" stroke-width="0" opacity="1"/>
		<rect x="9" y="185" width="84" height="136" fill="none" stroke="#878787" stroke-width="2" opacity="1"/>
		<line x1="9" y1="210" x2="93" y2="210" stroke="#878787" stroke-width="1"/>
	</g>
	<text x="22" y="202.75" fill="#000000" font-family="Verdana" font-size="12">PLAYLIST</text>
	<text x="14" y="227.8" fill="#000000" font-family="Verdana" font-size="12">idP</text>
	<line x1="14" y1="230" x2="33" y2="230" stroke="#000000" stroke-width="1"/>
	<text x="14" y="244.8" fill="#000000" font-family="Verdana" font-size="12">nomP</text>
	<text x="14" y="261.8" fill="#000000" font-family="Verdana" font-size="12">imgP</text>
	<text x="14" y="278.8" fill="#000000" font-family="Verdana" font-size="12">descriptionP</text>
	<text x="14" y="295.8" fill="#000000" font-family="Verdana" font-size="12">anneeP</text>
	<text x="14" y="312.8" fill="#000000" font-family="Verdana" font-size="12">dateMajP</text>
</g>

<!-- Entity ALBUM -->
<g>
	<g>
		<rect x="242" y="185" width="86" height="25" fill="#bababa" stroke="none" stroke-width="0" opacity="1"/>
		<rect x="242" y="210" width="86" height="111" fill="#e0e0e0" stroke="none" stroke-width="0" opacity="1"/>
		<rect x="242" y="185" width="86" height="136" fill="none" stroke="#878787" stroke-width="2" opacity="1"/>
		<line x1="242" y1="210" x2="328" y2="210" stroke="#878787" stroke-width="1"/>
	</g>
	<text x="264" y="202.75" fill="#000000" font-family="Verdana" font-size="12">ALBUM</text>
	<text x="247" y="227.8" fill="#000000" font-family="Verdana" font-size="12">idAlbum</text>
	<line x1="247" y1="230" x2="297" y2="230" stroke="#000000" stroke-width="1"/>
	<text x="247" y="244.8" fill="#000000" font-family="Verdana" font-size="12">anneeAlbum</text>
	<text x="247" y="261.8" fill="#000000" font-family="Verdana" font-size="12">titreAlbum</text>
	<text x="247" y="278.8" fill="#000000" font-family="Verdana" font-size="12">imgAlbum</text>
	<text x="247" y="295.8" fill="#000000" font-family="Verdana" font-size="12">noteAlbum</text>
	<text x="247" y="312.8" fill="#000000" font-family="Verdana" font-size="12">dateP</text>
</g>

<!-- Entity UTILISATEUR -->
<g>
	<g>
		<rect x="124" y="346" width="94" height="25" fill="#bababa" stroke="none" stroke-width="0" opacity="1"/>
		<rect x="124" y="371" width="94" height="77" fill="#e0e0e0" stroke="none" stroke-width="0" opacity="1"/>
		<rect x="124" y="346" width="94" height="102" fill="none" stroke="#878787" stroke-width="2" opacity="1"/>
		<line x1="124" y1="371" x2="218" y2="371" stroke="#878787" stroke-width="1"/>
	</g>
	<text x="130" y="363.75" fill="#000000" font-family="Verdana" font-size="12">UTILISATEUR</text>
	<text x="129" y="388.8" fill="#000000" font-family="Verdana" font-size="12">idU</text>
	<line x1="129" y1="391" x2="150" y2="391" stroke="#000000" stroke-width="1"/>
	<text x="129" y="405.8" fill="#000000" font-family="Verdana" font-size="12">pseudoU</text>
	<text x="129" y="422.8" fill="#000000" font-family="Verdana" font-size="12">mdpU</text>
	<text x="129" y="439.8" fill="#000000" font-family="Verdana" font-size="12">roleU</text>
</g>

<!-- Entity ARTISTE -->
<g>
	<g>
		<rect x="364" y="363" width="64" height="25" fill="#bababa" stroke="none" stroke-width="0" opacity="1"/>
		<rect x="364" y="388" width="64" height="43" fill="#e0e0e0" stroke="none" stroke-width="0" opacity="1"/>
		<rect x="364" y="363" width="64" height="68" fill="none" stroke="#878787" stroke-width="2" opacity="1"/>
		<line x1="364" y1="388" x2="428" y2="388" stroke="#878787" stroke-width="1"/>
	</g>
	<text x="370" y="380.75" fill="#000000" font-family="Verdana" font-size="12">ARTISTE</text>
	<text x="369" y="405.8" fill="#000000" font-family="Verdana" font-size="12">idA</text>
	<line x1="369" y1="408" x2="389" y2="408" stroke="#000000" stroke-width="1"/>
	<text x="369" y="422.8" fill="#000000" font-family="Verdana" font-size="12">nomA</text>
</g>
</svg>