<?xml version="1.0" encoding="utf-8"?>
<!-- Generated by Mocodo 4.1.2 -->
<svg width="439" height="423" viewBox="0 0 439 423" xmlns="http://www.w3.org/2000/svg">
<rect x="0" y="0" width="439" height="423" fill="#f5f5f5" stroke="none" stroke-width="0"/>

<!-- Association CONTIENT -->
<g>
	<line x1="171" y1="135" x2="171" y2="43" stroke="#bf812d" stroke-width="2"/>
	<line x1="51" y1="43" x2="171" y2="43" stroke="#bf812d" stroke-width="2"/>
	<g>
		<path d="M196 18 a14 14 90 0 1 14 14 V43 h-78 V32 a14 14 90 0 1 14 -14" fill="#dfc27d" stroke="#dfc27d" stroke-width="0"/>
		<path d="M210 43 v11 a14 14 90 0 1 -14 14 H146 a14 14 90 0 1 -14 -14 V43 H78" fill="#f6e8c3" stroke="#f6e8c3" stroke-width="0"/>
		<rect x="132" y="18" width="78" height="50" fill="none" rx="14" stroke="#bf812d" stroke-width="2"/>
		<line x1="132" y1="43" x2="210" y2="43" stroke="#bf812d" stroke-width="1"/>
		<text x="139" y="35.75" fill="#000000" font-family="Verdana" font-size="12">CONTIENT</text>
	</g>
	<text x="176" y="85" fill="#01665e" font-family="Verdana" font-size="12">1,N</text>
	<text x="83" y="60" fill="#01665e" font-family="Verdana" font-size="12">0,N</text>
</g>

<!-- Association COMPOSER -->
<g>
	<line x1="51" y1="236" x2="51" y2="135" stroke="#bf812d" stroke-width="2"/>
	<line x1="171" y1="135" x2="51" y2="135" stroke="#bf812d" stroke-width="2"/>
	<g>
		<path d="M79 110 a14 14 90 0 1 14 14 V135 h-84 V124 a14 14 90 0 1 14 -14" fill="#dfc27d" stroke="#dfc27d" stroke-width="0"/>
		<path d="M93 135 v11 a14 14 90 0 1 -14 14 H23 a14 14 90 0 1 -14 -14 V135 H84" fill="#f6e8c3" stroke="#f6e8c3" stroke-width="0"/>
		<rect x="9" y="110" width="84" height="50" fill="none" rx="14" stroke="#bf812d" stroke-width="2"/>
		<line x1="9" y1="135" x2="93" y2="135" stroke="#bf812d" stroke-width="1"/>
		<text x="16" y="127.75" fill="#000000" font-family="Verdana" font-size="12">COMPOSER</text>
	</g>
	<text x="56" y="194" fill="#01665e" font-family="Verdana" font-size="12">O,N</text>
	<text x="109" y="152" fill="#01665e" font-family="Verdana" font-size="12">0,N</text>
</g>

<!-- Association POSSEDER -->
<g>
	<line x1="285" y1="236" x2="285" y2="135" stroke="#bf812d" stroke-width="2"/>
	<line x1="171" y1="135" x2="285" y2="135" stroke="#bf812d" stroke-width="2"/>
	<g>
		<path d="M312 110 a14 14 90 0 1 14 14 V135 h-82 V124 a14 14 90 0 1 14 -14" fill="#dfc27d" stroke="#dfc27d" stroke-width="0"/>
		<path d="M326 135 v11 a14 14 90 0 1 -14 14 H258 a14 14 90 0 1 -14 -14 V135 H82" fill="#f6e8c3" stroke="#f6e8c3" stroke-width="0"/>
		<rect x="244" y="110" width="82" height="50" fill="none" rx="14" stroke="#bf812d" stroke-width="2"/>
		<line x1="244" y1="135" x2="326" y2="135" stroke="#bf812d" stroke-width="1"/>
		<text x="252" y="127.75" fill="#000000" font-family="Verdana" font-size="12">POSSEDER</text>
	</g>
	<text x="290" y="177" fill="#01665e" font-family="Verdana" font-size="12">0,N</text>
	<text x="211" y="152" fill="#01665e" font-family="Verdana" font-size="12">1,1</text>
</g>

<!-- Association ECOUTER -->
<g>
	<line x1="171" y1="363" x2="171" y2="236" stroke="#bf812d" stroke-width="2"/>
	<line x1="171" y1="135" x2="171" y2="236" stroke="#bf812d" stroke-width="2"/>
	<g>
		<path d="M194 211 a14 14 90 0 1 14 14 V236 h-74 V225 a14 14 90 0 1 14 -14" fill="#dfc27d" stroke="#dfc27d" stroke-width="0"/>
		<path d="M208 236 v11 a14 14 90 0 1 -14 14 H148 a14 14 90 0 1 -14 -14 V236 H74" fill="#f6e8c3" stroke="#f6e8c3" stroke-width="0"/>
		<rect x="134" y="211" width="74" height="50" fill="none" rx="14" stroke="#bf812d" stroke-width="2"/>
		<line x1="134" y1="236" x2="208" y2="236" stroke="#bf812d" stroke-width="1"/>
		<text x="142" y="228.75" fill="#000000" font-family="Verdana" font-size="12">ECOUTER</text>
		<text x="141" y="253.8" fill="#000000" font-family="Verdana" font-size="12">date</text>
	</g>
	<text x="176" y="304" fill="#01665e" font-family="Verdana" font-size="12">O,N</text>
	<text x="176" y="194" fill="#01665e" font-family="Verdana" font-size="12">O,N</text>
</g>

<!-- Association PUBLIER -->
<g>
	<line x1="396" y1="363" x2="396" y2="236" stroke="#bf812d" stroke-width="2"/>
	<line x1="285" y1="236" x2="396" y2="236" stroke="#bf812d" stroke-width="2"/>
	<g>
		<path d="M416 211 a14 14 90 0 1 14 14 V236 h-68 V225 a14 14 90 0 1 14 -14" fill="#dfc27d" stroke="#dfc27d" stroke-width="0"/>
		<path d="M430 236 v11 a14 14 90 0 1 -14 14 H376 a14 14 90 0 1 -14 -14 V236 H68" fill="#f6e8c3" stroke="#f6e8c3" stroke-width="0"/>
		<rect x="362" y="211" width="68" height="50" fill="none" rx="14" stroke="#bf812d" stroke-width="2"/>
		<line x1="362" y1="236" x2="430" y2="236" stroke="#bf812d" stroke-width="1"/>
		<text x="370" y="228.75" fill="#000000" font-family="Verdana" font-size="12">PUBLIER</text>
	</g>
	<text x="401" y="321" fill="#01665e" font-family="Verdana" font-size="12">0,N</text>
	<text x="333" y="253" fill="#01665e" font-family="Verdana" font-size="12">1,1</text>
</g>

<!-- Association ASSOCIER -->
<g>
	<line x1="171" y1="363" x2="51" y2="363" stroke="#bf812d" stroke-width="2"/>
	<line x1="51" y1="236" x2="51" y2="363" stroke="#bf812d" stroke-width="2"/>
	<g>
		<path d="M76 338 a14 14 90 0 1 14 14 V363 h-78 V352 a14 14 90 0 1 14 -14" fill="#dfc27d" stroke="#dfc27d" stroke-width="0"/>
		<path d="M90 363 v11 a14 14 90 0 1 -14 14 H26 a14 14 90 0 1 -14 -14 V363 H78" fill="#f6e8c3" stroke="#f6e8c3" stroke-width="0"/>
		<rect x="12" y="338" width="78" height="50" fill="none" rx="14" stroke="#bf812d" stroke-width="2"/>
		<line x1="12" y1="363" x2="90" y2="363" stroke="#bf812d" stroke-width="1"/>
		<text x="19" y="355.75" fill="#000000" font-family="Verdana" font-size="12">ASSOCIER</text>
	</g>
	<text x="95" y="380" fill="#01665e" font-family="Verdana" font-size="12">O,N</text>
	<text x="56" y="287" fill="#01665e" font-family="Verdana" font-size="12">1,1</text>
</g>

<!-- Association NOTER -->
<g>
	<line x1="171" y1="363" x2="285" y2="363" stroke="#bf812d" stroke-width="2"/>
	<line x1="285" y1="236" x2="285" y2="363" stroke="#bf812d" stroke-width="2"/>
	<g>
		<path d="M300 338 a14 14 90 0 1 14 14 V363 h-58 V352 a14 14 90 0 1 14 -14" fill="#dfc27d" stroke="#dfc27d" stroke-width="0"/>
		<path d="M314 363 v11 a14 14 90 0 1 -14 14 H270 a14 14 90 0 1 -14 -14 V363 H58" fill="#f6e8c3" stroke="#f6e8c3" stroke-width="0"/>
		<rect x="256" y="338" width="58" height="50" fill="none" rx="14" stroke="#bf812d" stroke-width="2"/>
		<line x1="256" y1="363" x2="314" y2="363" stroke="#bf812d" stroke-width="1"/>
		<text x="264" y="355.75" fill="#000000" font-family="Verdana" font-size="12">NOTER</text>
		<text x="263" y="380.8" fill="#000000" font-family="Verdana" font-size="12">note</text>
	</g>
	<text x="223" y="380" fill="#01665e" font-family="Verdana" font-size="12">0,N</text>
	<text x="290" y="304" fill="#01665e" font-family="Verdana" font-size="12">0,N</text>
</g>

<!-- Entity GENRE -->
<g>
	<g>
		<rect x="24" y="9" width="54" height="25" fill="#80cdc1" stroke="none" stroke-width="0" opacity="1"/>
		<rect x="24" y="34" width="54" height="43" fill="#c7eae5" stroke="none" stroke-width="0" opacity="1"/>
		<rect x="24" y="9" width="54" height="68" fill="none" stroke="#35978f" stroke-width="2" opacity="1"/>
		<line x1="24" y1="34" x2="78" y2="34" stroke="#35978f" stroke-width="1"/>
	</g>
	<text x="30" y="26.75" fill="#000000" font-family="Verdana" font-size="12">GENRE</text>
	<text x="29" y="51.8" fill="#000000" font-family="Verdana" font-size="12">idG</text>
	<line x1="29" y1="54" x2="50" y2="54" stroke="#000000" stroke-width="1"/>
	<text x="29" y="68.8" fill="#000000" font-family="Verdana" font-size="12">nomG</text>
</g>

<!-- Entity MUSIQUE -->
<g>
	<g>
		<rect x="136" y="93" width="70" height="25" fill="#80cdc1" stroke="none" stroke-width="0" opacity="1"/>
		<rect x="136" y="118" width="70" height="59" fill="#c7eae5" stroke="none" stroke-width="0" opacity="1"/>
		<rect x="136" y="93" width="70" height="84" fill="none" stroke="#35978f" stroke-width="2" opacity="1"/>
		<line x1="136" y1="118" x2="206" y2="118" stroke="#35978f" stroke-width="1"/>
	</g>
	<text x="142" y="110.75" fill="#000000" font-family="Verdana" font-size="12">MUSIQUE</text>
	<text x="141" y="135.8" fill="#000000" font-family="Verdana" font-size="12">idM</text>
	<line x1="141" y1="138" x2="163" y2="138" stroke="#000000" stroke-width="1"/>
	<text x="141" y="152.8" fill="#000000" font-family="Verdana" font-size="12">nomM</text>
	<text x="141" y="169.8" fill="#000000" font-family="Verdana" font-size="12">lienM</text>
</g>

<!-- Entity PLAYLIST -->
<g>
	<g>
		<rect x="17" y="202" width="68" height="25" fill="#80cdc1" stroke="none" stroke-width="0" opacity="1"/>
		<rect x="17" y="227" width="68" height="43" fill="#c7eae5" stroke="none" stroke-width="0" opacity="1"/>
		<rect x="17" y="202" width="68" height="68" fill="none" stroke="#35978f" stroke-width="2" opacity="1"/>
		<line x1="17" y1="227" x2="85" y2="227" stroke="#35978f" stroke-width="1"/>
	</g>
	<text x="22" y="219.75" fill="#000000" font-family="Verdana" font-size="12">PLAYLIST</text>
	<text x="22" y="244.8" fill="#000000" font-family="Verdana" font-size="12">idP</text>
	<line x1="22" y1="247" x2="41" y2="247" stroke="#000000" stroke-width="1"/>
	<text x="22" y="261.8" fill="#000000" font-family="Verdana" font-size="12">nomP</text>
</g>

<!-- Entity ALBUM -->
<g>
	<g>
		<rect x="242" y="185" width="86" height="25" fill="#80cdc1" stroke="none" stroke-width="0" opacity="1"/>
		<rect x="242" y="210" width="86" height="77" fill="#c7eae5" stroke="none" stroke-width="0" opacity="1"/>
		<rect x="242" y="185" width="86" height="102" fill="none" stroke="#35978f" stroke-width="2" opacity="1"/>
		<line x1="242" y1="210" x2="328" y2="210" stroke="#35978f" stroke-width="1"/>
	</g>
	<text x="264" y="202.75" fill="#000000" font-family="Verdana" font-size="12">ALBUM</text>
	<text x="247" y="227.8" fill="#000000" font-family="Verdana" font-size="12">idAlbum</text>
	<line x1="247" y1="230" x2="297" y2="230" stroke="#000000" stroke-width="1"/>
	<text x="247" y="244.8" fill="#000000" font-family="Verdana" font-size="12">anneeAlbum</text>
	<text x="247" y="261.8" fill="#000000" font-family="Verdana" font-size="12">titreAlbum</text>
	<text x="247" y="278.8" fill="#000000" font-family="Verdana" font-size="12">imgAlbum</text>
</g>

<!-- Entity UTILISATEUR -->
<g>
	<g>
		<rect x="124" y="312" width="94" height="25" fill="#80cdc1" stroke="none" stroke-width="0" opacity="1"/>
		<rect x="124" y="337" width="94" height="77" fill="#c7eae5" stroke="none" stroke-width="0" opacity="1"/>
		<rect x="124" y="312" width="94" height="102" fill="none" stroke="#35978f" stroke-width="2" opacity="1"/>
		<line x1="124" y1="337" x2="218" y2="337" stroke="#35978f" stroke-width="1"/>
	</g>
	<text x="130" y="329.75" fill="#000000" font-family="Verdana" font-size="12">UTILISATEUR</text>
	<text x="129" y="354.8" fill="#000000" font-family="Verdana" font-size="12">idU</text>
	<line x1="129" y1="357" x2="150" y2="357" stroke="#000000" stroke-width="1"/>
	<text x="129" y="371.8" fill="#000000" font-family="Verdana" font-size="12">pseudoU</text>
	<text x="129" y="388.8" fill="#000000" font-family="Verdana" font-size="12">mdpU</text>
	<text x="129" y="405.8" fill="#000000" font-family="Verdana" font-size="12">roleU</text>
</g>

<!-- Entity ARTISTE -->
<g>
	<g>
		<rect x="364" y="329" width="64" height="25" fill="#80cdc1" stroke="none" stroke-width="0" opacity="1"/>
		<rect x="364" y="354" width="64" height="43" fill="#c7eae5" stroke="none" stroke-width="0" opacity="1"/>
		<rect x="364" y="329" width="64" height="68" fill="none" stroke="#35978f" stroke-width="2" opacity="1"/>
		<line x1="364" y1="354" x2="428" y2="354" stroke="#35978f" stroke-width="1"/>
	</g>
	<text x="370" y="346.75" fill="#000000" font-family="Verdana" font-size="12">ARTISTE</text>
	<text x="369" y="371.8" fill="#000000" font-family="Verdana" font-size="12">idA</text>
	<line x1="369" y1="374" x2="389" y2="374" stroke="#000000" stroke-width="1"/>
	<text x="369" y="388.8" fill="#000000" font-family="Verdana" font-size="12">nomA</text>
</g>
</svg>