<svg width="22" height="22" viewBox="0 0 22 22" fill="none" xmlns="http://www.w3.org/2000/svg">
<path id="Vector" d="M16.5002 1.42279C18.1593 2.34752 19.5395 3.6745 20.504 5.27237C21.4686 6.87024 21.9842 8.68359 21.9996 10.5329C22.0151 12.3822 21.53 14.2034 20.5923 15.8161C19.6546 17.4288 18.2968 18.7771 16.6534 19.7276C15.0099 20.6781 13.1379 21.1977 11.2224 21.2352C9.30703 21.2726 7.4147 20.8265 5.73278 19.9409C4.05086 19.0554 2.63769 17.7612 1.63315 16.1865C0.628616 14.6117 0.0675511 12.811 0.00550019 10.9626L0 10.6186L0.00550019 10.2745C0.0671044 8.44065 0.61991 6.6535 1.61002 5.08728C2.60014 3.52106 3.99377 2.22922 5.65505 1.33771C7.31633 0.446202 9.18857 -0.014559 11.0892 0.000350677C12.9899 0.0152604 14.8541 0.505332 16.5002 1.42279ZM11.0001 4.24735C10.7307 4.24739 10.4707 4.34287 10.2693 4.5157C10.068 4.68853 9.93934 4.92668 9.90782 5.18498L9.90012 5.30922V10.6186L9.91002 10.7577C9.9351 10.9419 10.0098 11.1165 10.1267 11.2642L10.2224 11.3704L13.5225 14.556L13.6259 14.643C13.8188 14.7875 14.056 14.8659 14.3002 14.8659C14.5443 14.8659 14.7816 14.7875 14.9745 14.643L15.0779 14.5549L15.1692 14.4551C15.3189 14.2689 15.4001 14.0399 15.4001 13.8042C15.4001 13.5684 15.3189 13.3394 15.1692 13.1532L15.0779 13.0534L12.1001 10.1779V5.30922L12.0924 5.18498C12.0609 4.92668 11.9323 4.68853 11.731 4.5157C11.5296 4.34287 11.2696 4.24739 11.0001 4.24735Z" fill="#7E7E7E"/>
</svg>
