<svg width="12" height="13" viewBox="0 0 12 13" fill="none" xmlns="http://www.w3.org/2000/svg">
<path d="M2.5 3.5C2.5 4.42826 2.86875 5.3185 3.52513 5.97487C4.1815 6.63125 5.07174 7 6 7C6.92826 7 7.8185 6.63125 8.47487 5.97487C9.13125 5.3185 9.5 4.42826 9.5 3.5C9.5 2.57174 9.13125 1.6815 8.47487 1.02513C7.8185 0.368749 6.92826 0 6 0C5.07174 0 4.1815 0.368749 3.52513 1.02513C2.86875 1.6815 2.5 2.57174 2.5 3.5ZM11 13H0.5C0.367392 13 0.240215 12.9473 0.146447 12.8536C0.0526785 12.7598 0 12.6326 0 12.5V11C0 10.337 0.263392 9.70107 0.732233 9.23223C1.20107 8.76339 1.83696 8.5 2.5 8.5H9.5C10.163 8.5 10.7989 8.76339 11.2678 9.23223C11.7366 9.70107 12 10.337 12 11V12.5C12 12.6326 11.9473 12.7598 11.8536 12.8536C11.7598 12.9473 11.6326 13 11.5 13H11Z" fill="#7E7E7E"/>
</svg>
