<svg width="12" height="12" viewBox="0 0 12 12" fill="none" xmlns="http://www.w3.org/2000/svg">
<path d="M9.00011 0.803935C9.90508 1.32645 10.6579 2.07625 11.184 2.97912C11.7102 3.88198 11.9914 4.9066 11.9998 5.95154C12.0082 6.99648 11.7436 8.02551 11.2322 8.93675C10.7207 9.848 9.98007 10.6099 9.08366 11.1469C8.18724 11.684 7.16611 11.9776 6.12133 11.9988C5.07656 12.0199 4.04438 11.7678 3.12697 11.2675C2.20956 10.7671 1.43874 10.0358 0.890811 9.14604C0.342882 8.25624 0.036846 7.23876 0.00300011 6.19433L0 5.99993L0.00300011 5.80553C0.0366024 4.76933 0.338133 3.75951 0.878194 2.87453C1.41826 1.98955 2.17842 1.25961 3.08457 0.755865C3.99073 0.252123 5.01195 -0.00822647 6.04868 0.000198147C7.08541 0.00862276 8.10226 0.285534 9.00011 0.803935ZM6.00007 2.39994C5.85311 2.39995 5.71127 2.45391 5.60145 2.55156C5.49162 2.64922 5.42146 2.78378 5.40427 2.92974L5.40007 2.99994V5.99993L5.40547 6.07853C5.41915 6.18263 5.4599 6.28132 5.52367 6.36473L5.57587 6.42473L7.37589 8.22473L7.43229 8.27393C7.53752 8.35557 7.66691 8.39988 7.8001 8.39988C7.93328 8.39988 8.06268 8.35557 8.1679 8.27393L8.2243 8.22413L8.2741 8.16773C8.35574 8.06251 8.40005 7.93312 8.40005 7.79993C8.40005 7.66675 8.35574 7.53736 8.2741 7.43213L8.2243 7.37573L6.60008 5.75093V2.99994L6.59588 2.92974C6.57869 2.78378 6.50852 2.64922 6.3987 2.55156C6.28888 2.45391 6.14704 2.39995 6.00007 2.39994Z" fill="#7E7E7E"/>
</svg>
